<svg xmlns="http://www.w3.org/2000/svg" width="54" height="21" viewBox="0 0 54 21">
    <g fill="none" fill-rule="evenodd">
        <path fill="#FAFAFB" d="M45.053 14.578c-1.475-3.381-2.915-6.118-4.258-7.881C47.4 5.474 51.893 6.18 52.813 8.975c.728 2.213-.697 5.821-3.774 9.785-.54.696-1.148 1.084-1.82 1.22a99.025 99.025 0 0 0-2.166-5.403zM27.642 9.764c-.323.15-.683.314-1.132.516-.45-.202-.81-.366-1.133-.516-3.222-1.495-7.3-2.875-11.144-3.741C17.94 2.2 22.377 0 26.51 0c4.567 0 8.682 1.972 12.315 6.014-3.855.865-7.95 2.25-11.183 3.75zM12.22 6.7C9.204 10.431 6.218 16.695 5.886 20c-.715-.116-1.357-.508-1.925-1.24C.884 14.796-.541 11.188.187 8.975c.92-2.797 5.42-3.502 12.034-2.276zm16.023 3.905C31.597 9.103 37 7.36 39.614 6.918c.212.252.429.536.65.85.923 1.306 1.909 3.1 2.925 5.259a88.412 88.412 0 0 1 2.273 5.31c.233.593.444 1.146.63 1.648-.402-.069-.82-.201-1.246-.388a8.213 8.213 0 0 1-1.3-.722c-8.093-5.325-8.614-5.65-11.413-6.887a22.262 22.262 0 0 0-3.97-1.348l.08-.036zM6.948 19.981c.372-3.2 3.484-9.594 6.464-13.053 2.907.503 7.783 2.137 11.293 3.691-3.149.688-6.05 2.245-10.33 5.147.144-.097-1.864 1.27-2.402 1.63a50.524 50.524 0 0 1-2.328 1.482c-.953.564-1.9.965-2.697 1.103z"/>
    </g>
</svg>
